#!OML:ASF F:\VICON\USERDATA\INSTALL\rory3\rory3.ASF
:FULLY-SPECIFIED
:DEGREES
143
root 0.800217 17.9342 -0.598777 0.55919 -31.1524 2.10819
lowerback -0.0200575 -1.67944 -4.46342
upperback -0.0408081 -2.24586 2.51361
thorax 0.242362 -1.13352 5.0921
lowerneck -19.6775 1.69495 -10.002
upperneck 23.1273 4.39681 4.18573
head 10.3444 1.62254 3.7862
rclavicle -1.02846e-013 -7.95139e-015
rhumerus -34.5869 -11.4191 -70.6073
rradius 39.846
rwrist 14.2548
rhand -26.7237 12.0085
rfingers 7.12502
rthumb -0.153273 -17.9712
lclavicle -1.02846e-013 -7.95139e-015
lhumerus 25.4954 -16.1076 61.7178
lradius 107.875
lwrist -3.12212
lhand -33.9741 30.9902
lfingers 7.12502
lthumb -7.15454 60.8492
rfemur -9.62241 3.24398 9.81694
rtibia 24.2678
rfoot -14.9784 -9.84881
rtoes 0.458812
lfemur -0.542146 1.91254 -24.4489
ltibia 14.2686
lfoot -10.4682 6.82856
ltoes -11.332
144
root 0.798718 17.9328 -0.600406 0.527893 -31.0969 2.16114
lowerback 0.0179869 -1.6823 -4.50142
upperback -0.0768607 -2.25123 2.51132
thorax 0.185896 -1.13384 5.1132
lowerneck -19.7277 1.6881 -10.0115
upperneck 22.9779 4.4 4.16807
head 10.2998 1.6275 3.77788
rclavicle 8.07811e-014 -2.22639e-014
rhumerus -34.6561 -11.173 -70.6389
rradius 39.9294
rwrist 14.2268
rhand -26.7897 11.953
rfingers 7.12502
rthumb -0.21698 -18.0267
lclavicle 8.07811e-014 -2.22639e-014
lhumerus 25.8015 -15.9156 61.5878
lradius 107.797
lwrist -3.18071
lhand -34.0172 30.7622
lfingers 7.12502
lthumb -7.19615 60.6199
rfemur -9.61425 3.16899 9.773
rtibia 24.3041
rfoot -14.9813 -9.82371
rtoes 0.486994
lfemur -0.522685 1.84023 -24.4948
ltibia 14.2394
lfoot -10.4811 6.82371
ltoes -11.7952
145
root 0.797419 17.9322 -0.601494 0.475977 -31.0396 2.29825
lowerback 0.0221299 -1.70587 -4.59654
upperback -0.112297 -2.28287 2.47644
thorax 0.153204 -1.14789 5.13133
lowerneck -19.6233 1.69743 -10.0321
upperneck 22.6591 4.41349 4.13212
head 10.1646 1.64084 3.75609
rclavicle 1.65488e-014 -3.18055e-015
rhumerus -34.6568 -11.0086 -70.6856
rradius 39.9721
rwrist 14.2736
rhand -26.7412 11.9304
rfingers 7.12502
rthumb -0.170082 -18.0492
lclavicle 1.65488e-014 -3.18055e-015
lhumerus 26.1118 -15.6503 61.4481
lradius 107.671
lwrist -3.10039
lhand -34.0192 30.2318
lfingers 7.12502
lthumb -7.19812 60.0894
rfemur -9.63586 3.14592 9.63782
rtibia 24.3499
rfoot -15.068 -9.77698
rtoes 1.10393
lfemur -0.522416 1.88275 -24.6089
ltibia 14.1879
lfoot -10.477 6.75133
ltoes -11.9978
146
root 0.795661 17.9326 -0.603538 0.476585 -31.0112 2.3431
lowerback 0.0188728 -1.70871 -4.62767
upperback -0.153467 -2.28674 2.47126
thorax 0.114081 -1.14775 5.1443
lowerneck -19.5773 1.69632 -10.0296
upperneck 22.4066 4.41607 4.08302
head 10.0667 1.64677 3.7285
rclavicle 1.0143e-013 7.95139e-016
rhumerus -34.6773 -10.9692 -70.6649
rradius 40.0308
rwrist 14.3413
rhand -26.5852 11.8622
rfingers 7.12502
rthumb -0.0194391 -18.1175
lclavicle 1.0143e-013 7.95139e-016
lhumerus 26.3915 -15.4485 61.3069
lradius 107.602
lwrist -3.07748
lhand -34.0977 30.1384
lfingers 7.12502
lthumb -7.27387 59.9933
rfemur -9.6735 3.09265 9.59569
rtibia 24.3914
rfoot -15.063 -9.74938
rtoes 1.21019
lfemur -0.525574 2.00072 -24.6321
ltibia 14.1261
lfoot -10.4245 6.624
ltoes -11.835
147
root 0.794902 17.9333 -0.606264 0.46662 -30.9881 2.34055
lowerback 0.080169 -1.69657 -4.60895
upperback -0.178128 -2.27305 2.46971
thorax 0.0517892 -1.13853 5.13476
lowerneck -19.6837 1.68242 -10.0577
upperneck 22.253 4.39947 4.15284
head 10.0295 1.65226 3.75332
rclavicle 3.07371e-014 -2.06736e-014
rhumerus -34.6561 -10.8478 -70.6707
rradius 40.056
rwrist 14.2408
rhand -26.5045 11.8916
rfingers 7.12502
rthumb 0.0584795 -18.0882
lclavicle 3.07371e-014 -2.06736e-014
lhumerus 26.7656 -15.2776 61.0968
lradius 107.508
lwrist -3.19707
lhand -34.1837 30.4619
lfingers 7.12502
lthumb -7.35693 60.3139
rfemur -9.66569 3.06699 9.60354
rtibia 24.4117
rfoot -15.0922 -9.73772
rtoes 0.935494
lfemur -0.502914 1.96919 -24.627
ltibia 14.0904
lfoot -10.3781 6.63689
ltoes -11.7914
148
root 0.793737 17.9328 -0.609581 0.405702 -30.9641 2.37932
lowerback 0.209607 -1.69842 -4.65747
upperback -0.214772 -2.281 2.47427
thorax -0.0555557 -1.13858 5.17215
lowerneck -19.7521 1.69209 -10.0651
upperneck 22.0888 4.41597 4.17797
head 9.98077 1.66954 3.76168
rclavicle 2.37051e-014 3.18055e-015
rhumerus -34.6086 -10.7378 -70.6766
rradius 39.9645
rwrist 14.2417
rhand -26.6399 12.0531
rfingers 7.12502
rthumb -0.0722929 -17.9267
lclavicle 2.37051e-014 3.18055e-015
lhumerus 27.0169 -15.0618 60.9351
lradius 107.422
lwrist -3.2229
lhand -34.3074 30.6769
lfingers 7.12502
lthumb -7.47631 60.5248
rfemur -9.62124 3.07397 9.57864
rtibia 24.4005
rfoot -15.0297 -9.75418
rtoes 0.422375
lfemur -0.480962 1.9099 -24.6508
ltibia 14.1207
lfoot -10.3883 6.65583
ltoes -11.5605
